<svg width="100" height="30" viewBox="0 0 100 30" fill="none" xmlns="http://www.w3.org/2000/svg">
<g id="LOGO" clip-path="url(#clip0)">
<path id="Vector" d="M74.4446 0H63.811V3.30162H73.481L74.4446 0Z" fill="#00FF00"/>
<path id="Vector_2" d="M74.4446 13.3492H63.811V16.6508H73.481L74.4446 13.3492Z" fill="#00FF00"/>
<path id="Vector_3" d="M74.4446 26.6984H63.811V30H73.481L74.4446 26.6984Z" fill="#00FF00"/>
<path id="Vector_4" d="M95.7168 9.29591V7.39296C95.7168 5.43222 95.3223 3.5518 94.6203 2.16535C93.9182 0.778899 92.966 0 91.9731 0H85.0784V30.0095H86.7503V16.6889H89.882L93.7847 30.0095H95.712L91.8093 16.6889H91.9683C92.4603 16.6901 92.9476 16.4998 93.4024 16.1288C93.8572 15.7579 94.2704 15.2135 94.6186 14.5269C94.9667 13.8403 95.2429 13.0248 95.4313 12.1273C95.6198 11.2297 95.7168 10.2676 95.7168 9.29591V9.29591ZM86.7503 3.30162H91.9731C92.5222 3.30413 93.0484 3.73599 93.4367 4.50272C93.8249 5.26945 94.0436 6.30864 94.0449 7.39296V9.29591C94.0436 10.3802 93.8249 11.4194 93.4367 12.1861C93.0484 12.9529 92.5222 13.3847 91.9731 13.3873H86.7503V3.30162Z" fill="#00FF00"/>
<path id="Vector_5" d="M10.6384 9.29591V7.39296C10.6384 5.43222 10.244 3.5518 9.5419 2.16535C8.83983 0.778899 7.88761 0 6.89472 0H0V30.0095H1.67189V16.6889H4.81812L8.72079 30.0095H10.648L6.74536 16.6889H6.90436C7.89557 16.6838 8.84532 15.9027 9.54531 14.5168C10.2453 13.1309 10.6384 11.2534 10.6384 9.29591ZM1.67189 3.30162H6.89472C7.44381 3.30413 7.97003 3.73599 8.35829 4.50272C8.74656 5.26945 8.96524 6.30864 8.96651 7.39296V9.29591C8.96524 10.3802 8.74656 11.4194 8.35829 12.1861C7.97003 12.9529 7.44381 13.3847 6.89472 13.3873H1.67189V3.30162Z" fill="#00FF00"/>
<path id="Vector_6" d="M22.226 30L26.5624 8.81066L30.8987 30H32.7006L27.4633 4.40533L26.5624 0L25.6614 4.40533L20.4241 30H22.226Z" fill="#00FF00"/>
<path id="Vector_7" d="M97.0513 0H98.1161V0.418649H97.7065V2.91151H97.4656V0.418649H97.0513V0Z" fill="#00FF00"/>
<path id="Vector_8" d="M98.5256 0.00951385H98.9352L99.2532 2.28354L99.5808 0.00951385H99.9952V2.91151H99.7591V0.52331H99.735L99.3881 2.79733H99.1424L98.7714 0.52331V2.91151H98.5353L98.5256 0.00951385Z" fill="#00FF00"/>
<path id="Vector_9" d="M53.2353 26.6984H45.4348L52.2765 3.30162L53.2401 0H51.3129H42.5391V3.30162H50.3492L43.5075 26.6984L42.5391 30H44.4711H52.2717L53.2353 26.6984Z" fill="#00FF00"/>
<path id="Vector_10" d="M74.4446 0H63.811V3.30162H73.481L74.4446 0Z" fill="#00FF00"/>
<path id="Vector_11" d="M74.4446 13.3492H63.811V16.6508H73.481L74.4446 13.3492Z" fill="#00FF00"/>
<path id="Vector_12" d="M74.4446 26.6984H63.811V30H73.481L74.4446 26.6984Z" fill="#00FF00"/>
<path id="Vector_13" d="M22.226 30L26.5624 8.81066L30.8987 30H32.7006L27.4633 4.40533L26.5624 0L25.6614 4.40533L20.4241 30H22.226Z" fill="#00FF00"/>
<path id="Vector_14" d="M98.5255 -0.218838H0.409424L99.2531 2.28354L99.5807 0.00951619H99.9951V2.91151H99.759V0.523313H99.7349L99.388 2.79734H99.1423L98.7713 0.523313V2.91151H98.5352L98.5255 -0.218838Z" fill="#00FF00"/>
</g>
<defs>
<clipPath id="clip0">
<rect width="100" height="30" fill="white"/>
</clipPath>
</defs>
</svg>
